<svg width="528" height="360" viewBox="0 0 528 360" fill="none" xmlns="http://www.w3.org/2000/svg">
<path d="M41.5608 175.61C41.5608 110.952 93.9763 58.5366 158.634 58.5366H369.366C434.024 58.5366 486.439 110.952 486.439 175.61V242.927C486.439 307.585 434.024 360 369.366 360H158.634C93.9763 360 41.5608 307.585 41.5608 242.927V175.61Z" fill="#E7EFFC"/>
<path fill-rule="evenodd" clip-rule="evenodd" d="M368.46 268.89H90.8977V264.544H368.46V268.89Z" fill="#C5D3E8"/>
<path d="M486.439 209.4V242.927C486.439 275.147 473.424 304.327 452.363 325.495L463.561 234.03C465.04 221.944 474.786 211.846 486.439 209.4Z" fill="#B2BFD3"/>
<path d="M442.497 84.1821C469.285 105.637 486.439 138.62 486.439 175.61V242.927C486.439 307.585 434.024 360 369.366 360H158.634C100.491 360 52.2472 317.615 43.116 262.056V214.952L442.497 84.1821Z" fill="#E7EFFC"/>
<path fill-rule="evenodd" clip-rule="evenodd" d="M368.459 266.717H90.8969L149.409 125.385C164.785 88.2441 201.024 64.0259 241.222 64.0259H350.556C360.445 64.0259 368.459 72.0406 368.459 81.9288V266.717Z" fill="white"/>
<path d="M486.439 235.055V239.704L402.486 271.644V92.2903H406.832V265.342L486.439 235.055Z" fill="#C5D3E8"/>
<path d="M334.962 360H179.853L195.275 234.03C196.978 220.114 209.638 208.835 223.552 208.835H328.272C342.188 208.835 352.086 220.114 350.383 234.03L334.962 360Z" fill="#C5D3E8"/>
<path fill-rule="evenodd" clip-rule="evenodd" d="M304.672 191.258H251.457C238.894 191.258 229.958 181.075 231.495 168.512L232.085 163.701C234.963 140.189 256.355 121.13 279.867 121.13H293.432C316.943 121.13 333.668 140.189 330.79 163.701L330.202 168.512C328.663 181.075 317.234 191.258 304.672 191.258Z" fill="#C5D3E8"/>
<path d="M310.909 360H203.904L217.825 246.294C218.561 240.268 224.044 235.384 230.069 235.384H315.255C321.28 235.384 325.566 240.268 324.83 246.294L310.909 360Z" fill="#B2BFD3"/>
<path d="M486.439 208.835V242.927C486.439 293.066 454.92 335.844 410.615 352.526L425.121 234.03C426.824 220.114 439.484 208.835 453.4 208.835H486.439Z" fill="#C5D3E8"/>
<path d="M486.439 235.384V242.927C486.439 282.685 466.621 317.814 436.325 338.974L447.67 246.294C448.408 240.268 453.891 235.384 459.916 235.384H486.439Z" fill="#B2BFD3"/>
<path fill-rule="evenodd" clip-rule="evenodd" d="M131.741 278.798C125.81 270.364 128.231 256.145 133.76 251.634L197.115 198.21C207.933 189.305 224.634 191.812 233.793 204.63C243.24 217.854 239.775 235.105 227.209 242.221L155.762 283.808C149.707 287.202 137.509 287 131.741 278.798Z" fill="#93447B"/>
<path fill-rule="evenodd" clip-rule="evenodd" d="M196.367 260.174C196.239 242.586 186.439 227.3 172.016 219.375L133.761 251.634C128.23 256.145 125.81 270.364 131.74 278.798C137.508 287.001 149.706 287.203 155.763 283.809L196.367 260.174Z" fill="#F7D1B5"/>
<path d="M316.501 360.001H198.299C199.578 356.246 200.939 352.517 202.337 348.82V311.707L198.892 273.306C190.104 269.216 184.061 260.277 184.205 249.966C184.244 247.114 184.776 244.389 185.68 241.841L194.507 206.515C194.616 205.968 194.751 205.431 194.909 204.902L194.91 204.9C197.136 197.489 204.046 192.018 212.308 192.13L297.844 193.3C308.433 193.445 316.583 202.681 315.398 213.193L307.942 333.751L309.322 337.446C312.101 344.887 314.495 352.412 316.501 360.001Z" fill="#93447B"/>
<path fill-rule="evenodd" clip-rule="evenodd" d="M80.0628 148.287L90.6126 157.86L81.4704 138.488C80.7459 136.953 81.2433 135.119 82.646 134.161C84.168 133.122 86.2405 133.46 87.3513 134.932L98.3587 149.519L89.0325 124.076C88.4572 122.505 89.1022 120.75 90.5579 119.927C92.1562 119.022 94.1839 119.544 95.1472 121.104L108.512 142.751L102.295 110.473C101.913 108.494 103.111 106.551 105.05 106.002C107.03 105.438 109.106 106.519 109.781 108.464L132.523 173.989L129.141 188.236L160.671 258.386C164.849 267.679 160.878 278.608 151.708 283.053C141.616 287.946 129.509 282.985 125.75 272.416L101.046 202.938L74.9114 152.243C74.2101 150.882 74.5351 149.219 75.6973 148.224C76.9591 147.142 78.8309 147.17 80.0628 148.287Z" fill="#F7D1B5"/>
<path fill-rule="evenodd" clip-rule="evenodd" d="M75.697 148.224C76.9604 147.141 78.8306 147.17 80.0625 148.287L90.6122 157.86L81.4701 138.488C80.7455 136.953 81.2446 135.119 82.6456 134.161C84.1676 133.122 86.2401 133.46 87.3526 134.932L98.3584 149.519L89.0322 124.076C88.4569 122.505 89.1018 120.75 90.5575 119.927C92.1558 119.022 94.1835 119.544 95.1468 121.106L108.512 142.751L102.329 110.649C102.009 108.986 102.684 107.206 104.16 106.373C106.368 105.13 109.003 106.224 109.782 108.464L132.523 173.991L129.141 188.236L115.059 191.634C104.805 194.107 94.1802 189.304 89.2626 179.971L86.6579 175.029L74.9111 152.243C74.2098 150.884 74.5347 149.221 75.697 148.224Z" fill="#E2A083"/>
<path fill-rule="evenodd" clip-rule="evenodd" d="M77.5648 162.365L106.953 177.66C109.857 179.17 113.439 178.041 114.949 175.136L147.378 111.886C148.89 108.981 147.761 105.4 144.856 103.888L115.468 88.5942C112.563 87.0821 108.982 88.2112 107.472 91.116L75.043 154.367C73.5309 157.273 74.66 160.853 77.5648 162.365Z" fill="#375F7F"/>
<path fill-rule="evenodd" clip-rule="evenodd" d="M79.4438 159.891L108.765 175.179C110.133 175.892 111.819 175.363 112.534 173.994L144.215 110.83C144.928 109.46 144.397 107.774 143.029 107.061L113.708 91.7727C112.34 91.0581 110.654 91.5903 109.939 92.9581L78.2583 156.123C77.5437 157.49 78.076 159.178 79.4438 159.891Z" fill="#44BDFF"/>
<ellipse rx="14.2866" ry="14.2865" transform="matrix(0.848048 0.529919 -0.52992 0.848048 111.805 131.706)" fill="white"/>
<path d="M111.844 123.123C112.137 122.993 112.469 122.986 112.766 123.103L121.268 126.441C121.761 126.634 121.776 127.326 121.292 127.542L108.253 133.347L105.534 127.24C105.266 126.637 105.537 125.932 106.139 125.663L111.844 123.123Z" fill="#00B0FF"/>
<path d="M111.86 140.366C111.568 140.496 111.236 140.503 110.938 140.387L102.437 137.049C101.944 136.855 101.928 136.163 102.412 135.948L115.451 130.142L118.656 137.34L111.86 140.366Z" fill="#00B0FF"/>
<path d="M115.451 130.142L118.656 137.34L108.253 133.347L115.451 130.142Z" fill="#2F48FA"/>
<path fill-rule="evenodd" clip-rule="evenodd" d="M129.124 188.286L136.481 165.525C137.631 161.964 138.15 158.228 138.014 154.489L137.837 149.608C137.731 146.647 138.245 143.696 139.351 140.947L140.02 139.277C140.854 137.203 139.372 134.933 137.139 134.862C135.875 134.821 134.705 135.525 134.148 136.659L130.964 143.144C130.202 144.699 129.524 146.296 128.937 147.925L126.892 153.599C125.924 156.283 124.386 158.725 122.379 160.757L120.058 163.109C119.415 163.761 118.856 164.49 118.399 165.283L115.354 170.54C113.68 173.432 113.439 176.937 114.701 180.031C115.983 183.171 118.665 185.525 121.943 186.391L129.124 188.286Z" fill="#F7D1B5"/>
<path fill-rule="evenodd" clip-rule="evenodd" d="M392.137 177.191C387.914 168.517 375.174 164.063 368.976 166.552L296.551 194.256C284.362 199.085 278.857 213.897 285.21 227.197C291.762 240.92 307.461 245.889 318.973 238.82L385.37 199.132C390.888 195.708 396.243 185.626 392.137 177.191Z" fill="#93447B"/>
<path opacity="0.4" d="M312.123 238.208L304.637 229.642" stroke="white" stroke-width="1.82066" stroke-linecap="round" stroke-linejoin="round"/>
<path fill-rule="evenodd" clip-rule="evenodd" d="M345.715 18.8022C346.451 18.8022 347.047 19.3987 347.047 20.1344V24.6558C347.047 25.3915 346.451 25.988 345.715 25.988C344.979 25.988 344.383 25.3915 344.383 24.6558V20.1344C344.383 19.3987 344.979 18.8022 345.715 18.8022Z" fill="#113152"/>
<path fill-rule="evenodd" clip-rule="evenodd" d="M345.715 35.9545C346.451 35.9545 347.047 36.5509 347.047 37.2867V41.808C347.047 42.5438 346.451 43.1402 345.715 43.1402C344.979 43.1402 344.383 42.5438 344.383 41.808V37.2867C344.383 36.5509 344.979 35.9545 345.715 35.9545Z" fill="#113152"/>
<path fill-rule="evenodd" clip-rule="evenodd" d="M350.698 30.9713C350.698 30.2355 351.295 29.6391 352.03 29.6391H356.552C357.287 29.6391 357.884 30.2355 357.884 30.9713C357.884 31.707 357.287 32.3035 356.552 32.3035H352.03C351.295 32.3035 350.698 31.707 350.698 30.9713Z" fill="#113152"/>
<path fill-rule="evenodd" clip-rule="evenodd" d="M333.545 30.9713C333.545 30.2355 334.142 29.6391 334.877 29.6391H339.399C340.134 29.6391 340.731 30.2355 340.731 30.9713C340.731 31.707 340.134 32.3035 339.399 32.3035H334.877C334.142 32.3035 333.545 31.707 333.545 30.9713Z" fill="#113152"/>
<path fill-rule="evenodd" clip-rule="evenodd" d="M306.785 166.588C306.785 179.197 296.562 189.42 283.954 189.42C271.345 189.42 261.124 179.197 261.124 166.588C261.124 153.98 271.345 143.756 283.954 143.756C296.562 143.756 306.785 153.98 306.785 166.588Z" fill="#0C2B47"/>
<path fill-rule="evenodd" clip-rule="evenodd" d="M281.957 174.565C281.957 187.175 271.734 197.397 259.126 197.397C246.517 197.397 236.296 187.175 236.296 174.565C236.296 161.957 246.517 151.734 259.126 151.734C271.734 151.734 281.957 161.957 281.957 174.565Z" fill="#0C2B47"/>
<path fill-rule="evenodd" clip-rule="evenodd" d="M266.391 166.589C266.391 179.197 256.169 189.421 243.561 189.421C230.951 189.421 220.729 179.197 220.729 166.589C220.729 153.98 230.951 143.757 243.561 143.757C256.169 143.757 266.391 153.98 266.391 166.589Z" fill="#0C2B47"/>
<path fill-rule="evenodd" clip-rule="evenodd" d="M315.566 140.246C315.566 152.854 305.345 163.076 292.735 163.076C280.126 163.076 269.905 152.854 269.905 140.246C269.905 127.636 280.126 117.414 292.735 117.414C305.345 117.414 315.566 127.636 315.566 140.246Z" fill="#0C2B47"/>
<path fill-rule="evenodd" clip-rule="evenodd" d="M245.316 143.757C245.316 156.367 235.095 166.589 222.486 166.589C209.876 166.589 199.655 156.367 199.655 143.757C199.655 131.149 209.876 120.927 222.486 120.927C235.095 120.927 245.316 131.149 245.316 143.757Z" fill="#0C2B47"/>
<path d="M292.735 117.415C292.735 117.415 310.941 115.631 317.588 131.92" stroke="#0C2B47" stroke-width="1.44067" stroke-linecap="round" stroke-linejoin="round"/>
<path fill-rule="evenodd" clip-rule="evenodd" d="M211.943 130.475V99.9558C211.943 85.1632 223.936 73.1702 238.728 73.1702H265.149C275.887 73.1702 286.07 77.9386 292.944 86.1893C302.321 97.4422 303.988 113.239 297.166 126.201L273.314 181.168L211.943 130.475Z" fill="#0C2B47"/>
<path fill-rule="evenodd" clip-rule="evenodd" d="M253.164 206.34H262.103C268.463 206.34 273.782 201.512 274.394 195.181L278.583 146.043L236.268 145.622L240.885 195.287C241.546 201.571 246.846 206.34 253.164 206.34Z" fill="#F7D1B5"/>
<mask id="mask0_276_46527" style="mask-type:alpha" maskUnits="userSpaceOnUse" x="236" y="145" width="43" height="62">
<path d="M278.583 146.043L274.394 195.182C273.782 201.512 268.461 206.34 262.103 206.34H253.164C246.846 206.34 241.546 201.571 240.885 195.287L236.267 145.622" fill="white"/>
</mask>
<g mask="url(#mask0_276_46527)">
<path fill-rule="evenodd" clip-rule="evenodd" d="M244.891 184.864H238.399C221.941 184.864 208.598 171.521 208.598 155.063V116.439C208.598 105.554 217.421 96.7317 228.305 96.7317H254.984C265.869 96.7317 274.692 105.554 274.692 116.439V155.063C274.692 171.521 261.35 184.864 244.891 184.864Z" fill="#E2A083"/>
</g>
<path fill-rule="evenodd" clip-rule="evenodd" d="M248.236 178.036H241.744C225.286 178.036 211.943 164.693 211.943 148.235V109.611C211.943 98.7265 220.766 89.9038 231.65 89.9038H258.33C269.214 89.9038 278.038 98.7265 278.038 109.611V148.235C278.038 164.693 264.696 178.036 248.236 178.036Z" fill="#F7D1B5"/>
<path fill-rule="evenodd" clip-rule="evenodd" d="M293.145 142.987C293.145 149.245 288.072 154.318 281.814 154.318C275.557 154.318 270.484 149.245 270.484 142.987C270.484 136.73 275.557 131.657 281.814 131.657C288.072 131.657 293.145 136.73 293.145 142.987Z" fill="#F7D1B5"/>
<path d="M287.415 140.669C286.837 140.335 286.177 140.115 285.469 140.05C282.852 139.807 280.534 141.733 280.291 144.351C280.289 144.384 280.288 144.419 280.288 144.453C281.823 143.853 283.181 145.034 283.053 146.422C282.954 147.494 282.004 148.283 280.932 148.184" stroke="#E2A083" stroke-width="1.35131" stroke-linecap="round" stroke-linejoin="round"/>
<path fill-rule="evenodd" clip-rule="evenodd" d="M246.182 168.92L244.731 168.896C239.359 168.809 235.076 164.383 235.164 159.011L235.187 157.63C235.215 155.872 236.663 154.472 238.419 154.501L252.961 154.74C254.718 154.767 256.119 156.214 256.09 157.972L256.067 159.354C255.979 164.725 251.553 169.009 246.182 168.92Z" fill="#0C2B47"/>
<path d="M240.546 167.877C241.455 164.066 244.912 161.263 248.99 161.33L255.808 161.442C254.779 165.792 250.836 168.997 246.182 168.921L244.73 168.897C243.226 168.872 241.807 168.507 240.546 167.877Z" fill="#FF5A76"/>
<path d="M237.491 154.623C237.77 154.543 238.063 154.5 238.367 154.5C238.384 154.5 238.401 154.5 238.418 154.502L252.962 154.739C254.719 154.768 256.118 156.214 256.09 157.971L256.069 159.312L242.715 159.094C240.083 159.051 237.921 157.127 237.491 154.623Z" fill="white"/>
<path fill-rule="evenodd" clip-rule="evenodd" d="M234.866 132.476C234.311 132.3 233.718 132.606 233.542 133.161L228.888 147.793C228.788 148.108 228.841 148.452 229.033 148.722C229.224 148.992 229.531 149.156 229.861 149.166L235.334 149.328C235.916 149.346 236.402 148.888 236.419 148.306C236.436 147.724 235.978 147.238 235.397 147.221L231.321 147.1L235.551 133.8C235.727 133.245 235.42 132.653 234.866 132.476Z" fill="#0C2B47"/>
<path fill-rule="evenodd" clip-rule="evenodd" d="M222.151 133.672L222.148 133.671C222.131 133.669 222.103 133.665 222.064 133.661C221.985 133.652 221.865 133.641 221.712 133.634C221.404 133.622 220.977 133.628 220.503 133.705C219.549 133.859 218.495 134.277 217.764 135.296C217.424 135.769 216.766 135.877 216.293 135.538C215.82 135.199 215.711 134.54 216.051 134.067C217.22 132.437 218.88 131.831 220.166 131.624C220.812 131.519 221.386 131.511 221.799 131.528C222.007 131.537 222.177 131.552 222.299 131.565C222.36 131.572 222.409 131.579 222.446 131.584L222.49 131.591L222.504 131.593L222.51 131.594L222.512 131.594C222.512 131.594 222.514 131.594 222.337 132.634L222.514 131.594C222.525 131.596 222.536 131.598 222.547 131.601C225.757 132.252 227.448 133.964 228.3 135.588C228.716 136.381 228.92 137.128 229.021 137.679C229.072 137.956 229.097 138.187 229.11 138.354C229.116 138.438 229.119 138.506 229.121 138.556C229.122 138.581 229.122 138.602 229.122 138.618L229.122 138.639L229.122 138.646L229.122 138.65C229.122 138.65 229.122 138.652 228.068 138.644L229.122 138.652C229.118 139.234 228.642 139.703 228.06 139.698C227.48 139.693 227.013 139.221 227.014 138.642C227.014 138.642 227.014 138.642 227.014 138.642L227.014 138.622C227.013 138.601 227.011 138.564 227.007 138.513C227 138.411 226.983 138.255 226.947 138.06C226.875 137.667 226.729 137.131 226.433 136.568C225.863 135.483 224.695 134.194 222.151 133.672Z" fill="#0C2B47"/>
<path fill-rule="evenodd" clip-rule="evenodd" d="M286.325 83.7068H239.442C239.255 85.1468 239.125 86.6041 239.125 88.0944C239.125 106.672 254.185 121.734 272.763 121.734C284.267 121.734 294.412 115.951 300.478 107.141C296.359 100.634 290.858 91.0779 286.325 83.7068Z" fill="#0C2B47"/>
<path d="M240.13 105.794C240.13 105.794 231.337 96.9272 241.394 82.491" stroke="#0C2B47" stroke-width="1.44067" stroke-linecap="round" stroke-linejoin="round"/>
<path fill-rule="evenodd" clip-rule="evenodd" d="M290.268 161.076C290.268 155.564 285.8 151.095 280.287 151.095C274.775 151.095 270.306 155.564 270.306 161.076C270.306 166.589 274.775 171.057 280.287 171.057C285.8 171.057 290.268 166.589 290.268 161.076ZM280.287 152.863C284.823 152.863 288.5 156.54 288.5 161.076C288.5 165.612 284.823 169.29 280.287 169.29C275.751 169.29 272.074 165.612 272.074 161.076C272.074 156.54 275.751 152.863 280.287 152.863Z" fill="white"/>
<path fill-rule="evenodd" clip-rule="evenodd" d="M252.312 113.471C252.295 114.053 252.753 114.539 253.335 114.556L255.063 114.606C257.923 114.691 260.173 117.078 260.088 119.94C260.071 120.521 260.529 121.007 261.111 121.024C261.693 121.042 262.178 120.584 262.196 120.002C262.315 115.977 259.15 112.618 255.126 112.499L253.396 112.448C252.814 112.432 252.329 112.89 252.312 113.471Z" fill="#0C2B47"/>
<path fill-rule="evenodd" clip-rule="evenodd" d="M225.579 111.623C222.288 111.527 219.541 114.115 219.443 117.407C219.426 117.989 219.884 118.475 220.466 118.492C221.048 118.509 221.534 118.052 221.551 117.47C221.614 115.342 223.389 113.669 225.517 113.731L227.461 113.79C228.043 113.807 228.529 113.35 228.547 112.768C228.565 112.186 228.107 111.7 227.525 111.682L225.579 111.623Z" fill="#0C2B47"/>
<path d="M270.819 360.001H245.79C228.152 323.735 219.534 289.081 215.358 262.502C209.946 228.067 210.646 203.137 211.357 192.619C211.568 189.519 214.131 187.11 217.24 187.083L223.938 187.028L223.349 187.033L234.325 186.942L223.938 187.028L234.327 186.931C234.29 187.231 230.772 217.486 237.52 259.799C241.834 286.855 251.095 322.894 270.819 360.001Z" fill="#0C2B47"/>
<path fill-rule="evenodd" clip-rule="evenodd" d="M328.472 182.045C328.638 196.027 337.027 209.215 350.787 214.828C352.579 215.559 354.396 216.128 356.221 216.555L385.368 199.131C390.888 195.708 396.245 185.627 392.137 177.191C387.914 168.517 375.174 164.063 368.977 166.551L328.472 182.045Z" fill="#F7D1B5"/>
<path fill-rule="evenodd" clip-rule="evenodd" d="M392.021 105.925C395.899 105.819 399.404 103.579 401.129 100.102L431.757 38.3509C432.554 36.8026 431.796 34.9084 430.15 34.3406L429.455 34.1017C428.15 33.6518 426.71 34.1979 426.034 35.4017L417.219 51.0704L415.142 20.2264C415.05 18.8643 414.006 17.7566 412.654 17.5844C411.014 17.375 409.54 18.5959 409.441 20.245L407.562 51.3279L380.424 27.0725C379.388 26.1479 377.837 26.1014 376.749 26.9624L376.465 27.1873C375.176 28.2066 375.012 30.0992 376.104 31.3263L393.378 50.7322L381.703 48.1399C376.571 47.0012 371.214 48.582 367.523 52.3239L358.946 61.0223C357.478 62.5116 357.737 64.969 359.483 66.1185C360.722 66.9345 362.353 66.8275 363.474 65.8563L372.289 58.2268C373.653 57.0478 375.536 56.6723 377.246 57.2401L384.11 59.5206C386.727 60.3894 388.473 62.8638 388.415 65.6221L388.333 69.5377C388.293 71.4133 387.418 73.1725 385.947 74.3376L380.683 78.503C378.124 80.5275 374.439 80.2591 372.202 77.8824L363.347 68.4781C361.924 66.9671 359.534 66.9283 358.063 68.3944C356.831 69.6215 356.627 71.542 357.568 73.0019L374.304 98.9219C374.552 99.3082 374.776 99.71 374.973 100.126C376.751 103.883 380.579 106.237 384.735 106.123L392.021 105.925Z" fill="#F7D1B5"/>
<path fill-rule="evenodd" clip-rule="evenodd" d="M370.846 200.239L372.059 200.412C382.084 201.844 391.37 194.877 392.802 184.854L400.868 103.958C401.4 97.5126 397.065 91.9215 391.217 91.0869L390.509 90.986C384.661 90.1499 378.91 94.2997 377.585 100.634L355.287 179.495C353.855 189.519 360.821 198.807 370.846 200.239Z" fill="#F7D1B5"/>
<path fill-rule="evenodd" clip-rule="evenodd" d="M248.839 136.458C246.515 137.585 245.053 139.564 244.536 140.909C244.319 141.474 243.684 141.757 243.118 141.539C242.552 141.321 242.27 140.686 242.488 140.121C243.19 138.294 245.021 135.87 247.881 134.483C250.802 133.066 254.698 132.781 259.369 135.116C259.911 135.387 260.131 136.046 259.86 136.588C259.589 137.131 258.929 137.35 258.387 137.079C254.277 135.024 251.1 135.362 248.839 136.458Z" fill="#0C2B47"/>
</svg>
